# xmcd
#
# Track frame offsets: 
#        150
#        14664
#        28780
#        46537
#        60952
#        81075
#        95745
#        110522
#        124078
#        136419
#        158455
#        172864
#
# Disc length: 2552 seconds
#
# Revision: 0
# Processed by: cddbd v1.5.2PL0 Copyright (c) Steve Scherf et al.
# Submitted via: ExactAudioCopyFreeDBPlugin 1.0
#
DISCID=8c09f60c
DTITLE=Lowkey - Dear Listener
DYEAR=1900
DGENRE=Hip-Hop
TTITLE0=Dear Listener
TTITLE1=Tell me Why
TTITLE2=Rise and Fall
TTITLE3=I'm Back
TTITLE4=Alphabet Assasin
TTITLE5=Special
TTITLE6=Revolution
TTITLE7=Everything Must Change
TTITLE8=The Essence
TTITLE9=Relatives
TTITLE10=In my Lifetime
TTITLE11=I Believe
EXTD=
EXTT0=
EXTT1=
EXTT2=
EXTT3=
EXTT4=
EXTT5=
EXTT6=
EXTT7=
EXTT8=
EXTT9=
EXTT10=
EXTT11=
PLAYORDER=
